<svg width="14" height="14" viewBox="0 0 14 14" fill="none" xmlns="http://www.w3.org/2000/svg">
<path d="M4.99992 13.6667C4.82311 13.6667 4.65354 13.5965 4.52851 13.4714C4.40349 13.3464 4.33325 13.1769 4.33325 13V11H1.66659C1.31296 11 0.973825 10.8596 0.723776 10.6095C0.473728 10.3595 0.333252 10.0203 0.333252 9.66671V1.66671C0.333252 1.31309 0.473728 0.973947 0.723776 0.723898C0.973825 0.47385 1.31296 0.333374 1.66659 0.333374H12.3333C12.6869 0.333374 13.026 0.47385 13.2761 0.723898C13.5261 0.973947 13.6666 1.31309 13.6666 1.66671V9.66671C13.6666 10.0203 13.5261 10.3595 13.2761 10.6095C13.026 10.8596 12.6869 11 12.3333 11H8.26658L5.79992 13.4734C5.66658 13.6 5.49992 13.6667 5.33325 13.6667H4.99992ZM5.66658 9.66671V11.72L7.71992 9.66671H12.3333V1.66671H1.66659V9.66671H5.66658ZM2.99992 3.66671H10.9999V5.00004H2.99992V3.66671ZM2.99992 6.33337H8.99992V7.66671H2.99992V6.33337Z" fill="black"/>
</svg>
