<svg width="30" height="30" viewBox="0 0 30 30" fill="none" xmlns="http://www.w3.org/2000/svg">
<rect width="30" height="30" rx="10" fill="white"/>
<rect width="30" height="30" rx="10" fill="#2EDDC8" fill-opacity="0.5"/>
<path d="M9.16667 23.3333C8.70833 23.3333 8.31583 23.1702 7.98917 22.8441C7.66306 22.5175 7.5 22.125 7.5 21.6666V8.33329C7.5 7.87496 7.66306 7.48246 7.98917 7.15579C8.31583 6.82968 8.70833 6.66663 9.16667 6.66663H19.1667C19.625 6.66663 20.0175 6.82968 20.3442 7.15579C20.6703 7.48246 20.8333 7.87496 20.8333 8.33329V13.4166C20.8333 13.6527 20.7533 13.8505 20.5933 14.01C20.4339 14.17 20.2361 14.25 20 14.25C19.7639 14.25 19.5661 14.17 19.4067 14.01C19.2467 13.8505 19.1667 13.6527 19.1667 13.4166V8.33329H15V13.4375C15 13.6041 14.9306 13.7255 14.7917 13.8016C14.6528 13.8783 14.5139 13.875 14.375 13.7916L12.9167 12.9166L11.4583 13.7916C11.3194 13.875 11.1806 13.8783 11.0417 13.8016C10.9028 13.7255 10.8333 13.6041 10.8333 13.4375V8.33329H9.16667V21.6666H13.9792C14.2153 21.6666 14.4133 21.7466 14.5733 21.9066C14.7328 22.0661 14.8125 22.2638 14.8125 22.5C14.8125 22.7361 14.7328 22.9338 14.5733 23.0933C14.4133 23.2533 14.2153 23.3333 13.9792 23.3333H9.16667ZM20 24.1666C18.8472 24.1666 17.8647 23.7605 17.0525 22.9483C16.2397 22.1355 15.8333 21.1527 15.8333 20C15.8333 18.8472 16.2397 17.8644 17.0525 17.0516C17.8647 16.2394 18.8472 15.8333 20 15.8333C21.1528 15.8333 22.1356 16.2394 22.9483 17.0516C23.7606 17.8644 24.1667 18.8472 24.1667 20C24.1667 21.1527 23.7606 22.1355 22.9483 22.9483C22.1356 23.7605 21.1528 24.1666 20 24.1666ZM19.6042 21.6875L21.7292 20.3541C21.8681 20.2708 21.9375 20.1527 21.9375 20C21.9375 19.8472 21.8681 19.7291 21.7292 19.6458L19.6042 18.3125C19.4653 18.2152 19.3231 18.2083 19.1775 18.2916C19.0314 18.375 18.9583 18.5 18.9583 18.6666V21.3333C18.9583 21.5 19.0314 21.625 19.1775 21.7083C19.3231 21.7916 19.4653 21.7847 19.6042 21.6875ZM13.9792 8.33329H9.16667H19.1667H13.9792ZM10.8333 8.33329H15H10.8333Z" fill="white"/>
</svg>
