<svg width="30" height="30" viewBox="0 0 30 30" fill="none" xmlns="http://www.w3.org/2000/svg">
<rect width="30" height="30" rx="10" fill="#CF59C3" fill-opacity="0.5"/>
<path opacity="0.2" d="M20.625 22.5C21.6605 22.5 22.5 21.6605 22.5 20.625C22.5 19.5895 21.6605 18.75 20.625 18.75C19.5895 18.75 18.75 19.5895 18.75 20.625C18.75 21.6605 19.5895 22.5 20.625 22.5Z" fill="white"/>
<path d="M20.625 18.125C20.0709 18.1261 19.5327 18.3106 19.0946 18.6498C18.6564 18.989 18.3429 19.4638 18.2031 20H10.625C9.96196 20 9.32607 19.7366 8.85723 19.2678C8.38839 18.7989 8.125 18.163 8.125 17.5C8.125 16.837 8.38839 16.2011 8.85723 15.7322C9.32607 15.2634 9.96196 15 10.625 15H18.125C18.9538 15 19.7487 14.6708 20.3347 14.0847C20.9208 13.4987 21.25 12.7038 21.25 11.875C21.25 11.0462 20.9208 10.2513 20.3347 9.66529C19.7487 9.07924 18.9538 8.75 18.125 8.75H10.625C10.4592 8.75 10.3003 8.81585 10.1831 8.93306C10.0658 9.05027 10 9.20924 10 9.375C10 9.54076 10.0658 9.69973 10.1831 9.81694C10.3003 9.93415 10.4592 10 10.625 10H18.125C18.6223 10 19.0992 10.1975 19.4508 10.5492C19.8025 10.9008 20 11.3777 20 11.875C20 12.3723 19.8025 12.8492 19.4508 13.2008C19.0992 13.5525 18.6223 13.75 18.125 13.75H10.625C9.63044 13.75 8.67661 14.1451 7.97335 14.8483C7.27009 15.5516 6.875 16.5054 6.875 17.5C6.875 18.4946 7.27009 19.4484 7.97335 20.1517C8.67661 20.8549 9.63044 21.25 10.625 21.25H18.2031C18.32 21.7027 18.5615 22.1135 18.9001 22.4359C19.2388 22.7582 19.661 22.9791 20.1189 23.0735C20.5768 23.1679 21.052 23.132 21.4906 22.9699C21.9291 22.8078 22.3134 22.526 22.5998 22.1564C22.8862 21.7869 23.0632 21.3444 23.1108 20.8793C23.1583 20.4142 23.0745 19.9451 22.8689 19.5252C22.6632 19.1054 22.3439 18.7516 21.9473 18.5041C21.5506 18.2566 21.0925 18.1252 20.625 18.125ZM20.625 21.875C20.3778 21.875 20.1361 21.8017 19.9305 21.6643C19.725 21.527 19.5648 21.3318 19.4701 21.1034C19.3755 20.8749 19.3508 20.6236 19.399 20.3811C19.4472 20.1387 19.5663 19.9159 19.7411 19.7411C19.9159 19.5663 20.1387 19.4472 20.3811 19.399C20.6236 19.3508 20.8749 19.3755 21.1034 19.4701C21.3318 19.5648 21.527 19.725 21.6643 19.9305C21.8017 20.1361 21.875 20.3778 21.875 20.625C21.875 20.9565 21.7433 21.2745 21.5089 21.5089C21.2745 21.7433 20.9565 21.875 20.625 21.875Z" fill="white"/>
</svg>
