<svg width="30" height="30" viewBox="0 0 30 30" fill="none" xmlns="http://www.w3.org/2000/svg">
<rect width="30" height="30" rx="10" fill="#4254DA" fill-opacity="0.5"/>
<path d="M20.6251 21.6667H9.37508C8.6833 21.6668 8.01772 21.4021 7.51489 20.927C7.01205 20.4519 6.71008 19.8024 6.67091 19.1117L6.66675 18.9584V10.2084C6.66669 9.73327 6.84699 9.27586 7.17122 8.92858C7.49545 8.5813 7.93942 8.37006 8.41341 8.33754L8.54175 8.33337H18.9584C19.4335 8.33332 19.8909 8.51362 20.2382 8.83785C20.5855 9.16208 20.7967 9.60605 20.8292 10.08L20.8334 10.2084V10.8334H21.4584C21.9335 10.8333 22.3909 11.0136 22.7382 11.3378C23.0855 11.6621 23.2967 12.106 23.3292 12.58L23.3334 12.7084V18.9584C23.3335 19.6502 23.0688 20.3157 22.5937 20.8186C22.1186 21.3214 21.4691 21.6234 20.7784 21.6625L20.6251 21.6667H9.37508H20.6251ZM9.37508 20.4167H20.6251C20.9912 20.4167 21.3439 20.2789 21.6132 20.0308C21.8824 19.7827 22.0485 19.4424 22.0784 19.0775L22.0834 18.9584V12.7084C22.0834 12.5573 22.0287 12.4114 21.9294 12.2976C21.8302 12.1838 21.693 12.1097 21.5434 12.0892L21.4584 12.0834H20.8334V18.5417C20.8334 18.6927 20.7787 18.8387 20.6794 18.9525C20.5802 19.0663 20.443 19.1403 20.2934 19.1609L20.2084 19.1667C20.0574 19.1667 19.9115 19.112 19.7976 19.0127C19.6838 18.9135 19.6098 18.7763 19.5892 18.6267L19.5834 18.5417V10.2084C19.5834 10.0573 19.5287 9.91142 19.4294 9.7976C19.3302 9.68377 19.193 9.60975 19.0434 9.58921L18.9584 9.58337H8.54175C8.39072 9.58338 8.2448 9.63808 8.13097 9.73735C8.01715 9.83662 7.94312 9.97375 7.92258 10.1234L7.91675 10.2084V18.9584C7.91676 19.3244 8.05439 19.677 8.30231 19.9462C8.55024 20.2154 8.89033 20.3816 9.25508 20.4117L9.37508 20.4167H20.6251H9.37508ZM15.2051 17.0834H17.7101C17.8684 17.0834 18.0209 17.1436 18.1366 17.2517C18.2523 17.3598 18.3226 17.5078 18.3334 17.6658C18.3442 17.8238 18.2947 17.98 18.1947 18.1028C18.0948 18.2256 17.952 18.306 17.7951 18.3275L17.7101 18.3334H15.2051C15.0467 18.3333 14.8943 18.2732 14.7786 18.1651C14.6629 18.057 14.5925 17.909 14.5817 17.751C14.5709 17.593 14.6205 17.4368 14.7204 17.314C14.8204 17.1911 14.9632 17.1108 15.1201 17.0892L15.2051 17.0834H17.7101H15.2051ZM12.7026 14.1709C12.8683 14.1709 13.0273 14.2367 13.1445 14.3539C13.2617 14.4711 13.3276 14.6301 13.3276 14.7959V17.7084C13.3276 17.8741 13.2617 18.0331 13.1445 18.1503C13.0273 18.2675 12.8683 18.3334 12.7026 18.3334H9.79008C9.62432 18.3334 9.46535 18.2675 9.34814 18.1503C9.23093 18.0331 9.16508 17.8741 9.16508 17.7084V14.7959C9.16508 14.6301 9.23093 14.4711 9.34814 14.3539C9.46535 14.2367 9.62432 14.1709 9.79008 14.1709H12.7026ZM12.0776 15.4209H10.4151V17.0834H12.0776V15.4209ZM15.2051 14.1709H17.7101C17.8684 14.1709 18.0209 14.2311 18.1366 14.3392C18.2523 14.4473 18.3226 14.5953 18.3334 14.7533C18.3442 14.9113 18.2947 15.0675 18.1947 15.1903C18.0948 15.3131 17.952 15.3935 17.7951 15.415L17.7101 15.4209H15.2051C15.0456 15.4225 14.8915 15.3631 14.7744 15.2548C14.6573 15.1465 14.586 14.9976 14.5752 14.8385C14.5643 14.6794 14.6147 14.5221 14.716 14.3989C14.8173 14.2757 14.9619 14.1959 15.1201 14.1759L15.2051 14.1709H17.7101H15.2051ZM9.79008 11.2517H17.7101C17.8696 11.2501 18.0236 11.3095 18.1407 11.4178C18.2578 11.526 18.3291 11.675 18.34 11.8341C18.3508 11.9932 18.3005 12.1505 18.1992 12.2737C18.0979 12.3968 17.9533 12.4766 17.7951 12.4967L17.7101 12.5017H9.79008C9.63173 12.5017 9.4793 12.4415 9.36359 12.3334C9.24788 12.2253 9.17752 12.0773 9.16673 11.9193C9.15593 11.7613 9.20551 11.6051 9.30544 11.4823C9.40537 11.3595 9.54821 11.2791 9.70508 11.2575L9.79008 11.2517H17.7101H9.79008V11.2517Z" fill="white"/>
</svg>
