<svg width="15" height="15" viewBox="0 0 15 15" fill="none" xmlns="http://www.w3.org/2000/svg">
<path d="M12.6563 7.85623V7.13904L13.5563 6.35154C13.7222 6.20531 13.8311 6.00515 13.8637 5.78641C13.8963 5.56768 13.8505 5.34447 13.7345 5.15623L12.6282 3.28123C12.546 3.13885 12.4278 3.02059 12.2855 2.93832C12.1431 2.85604 11.9817 2.81265 11.8173 2.81248C11.7154 2.8117 11.6141 2.82753 11.5173 2.85935L10.3782 3.24373C10.1816 3.11304 9.97641 2.9956 9.76415 2.89216L9.52509 1.71091C9.48222 1.4951 9.36482 1.30125 9.19343 1.16327C9.02203 1.0253 8.80757 0.952011 8.58759 0.956227H6.39384C6.17385 0.952011 5.95939 1.0253 5.788 1.16327C5.61661 1.30125 5.4992 1.4951 5.45634 1.71091L5.21728 2.89216C5.00349 2.99557 4.79679 3.11302 4.59853 3.24373L3.4829 2.8406C3.38507 2.81511 3.28376 2.80562 3.1829 2.81248C3.0185 2.81265 2.85703 2.85604 2.7147 2.93832C2.57236 3.02059 2.45416 3.13885 2.37196 3.28123L1.26571 5.15623C1.1563 5.34419 1.11564 5.56435 1.1507 5.77899C1.18577 5.99364 1.29436 6.18941 1.4579 6.33279L2.34384 7.14373V7.86091L1.4579 8.64841C1.28975 8.79279 1.17818 8.99207 1.14299 9.21089C1.10781 9.42971 1.15129 9.65392 1.26571 9.84373L2.37196 11.7187C2.45416 11.8611 2.57236 11.9794 2.7147 12.0616C2.85703 12.1439 3.0185 12.1873 3.1829 12.1875C3.28478 12.1883 3.38611 12.1724 3.4829 12.1406L4.62196 11.7562C4.81862 11.8869 5.02376 12.0044 5.23603 12.1078L5.47509 13.289C5.51795 13.5048 5.63536 13.6987 5.80675 13.8367C5.97814 13.9746 6.1926 14.0479 6.41259 14.0437H8.62509C8.84507 14.0479 9.05953 13.9746 9.23093 13.8367C9.40232 13.6987 9.51972 13.5048 9.56259 13.289L9.80165 12.1078C10.0154 12.0044 10.2221 11.8869 10.4204 11.7562L11.5548 12.1406C11.6516 12.1724 11.7529 12.1883 11.8548 12.1875C12.0192 12.1873 12.1806 12.1439 12.323 12.0616C12.4653 11.9794 12.5835 11.8611 12.6657 11.7187L13.7345 9.84373C13.8439 9.65576 13.8845 9.43561 13.8495 9.22096C13.8144 9.00632 13.7058 8.81054 13.5423 8.66716L12.6563 7.85623ZM11.8173 11.25L10.2095 10.7062C9.83309 11.025 9.40293 11.2742 8.93915 11.4422L8.60634 13.125H6.39384L6.06103 11.4609C5.60091 11.2882 5.17308 11.0394 4.7954 10.725L3.1829 11.25L2.07665 9.37498L3.35165 8.24998C3.26498 7.76475 3.26498 7.26801 3.35165 6.78279L2.07665 5.62498L3.1829 3.74998L4.79071 4.29373C5.16709 3.97493 5.59725 3.72572 6.06103 3.55779L6.39384 1.87498H8.60634L8.93915 3.53904C9.39926 3.71174 9.8271 3.96051 10.2048 4.27498L11.8173 3.74998L12.9235 5.62498L11.6485 6.74998C11.7352 7.2352 11.7352 7.73194 11.6485 8.21716L12.9235 9.37498L11.8173 11.25Z" fill="black"/>
<path d="M7.5 10.3125C6.94374 10.3125 6.39997 10.1476 5.93746 9.83851C5.47495 9.52947 5.11446 9.09022 4.90159 8.5763C4.68872 8.06238 4.63302 7.49688 4.74154 6.95131C4.85006 6.40574 5.11793 5.9046 5.51126 5.51126C5.9046 5.11793 6.40574 4.85006 6.95131 4.74154C7.49688 4.63302 8.06238 4.68872 8.5763 4.90159C9.09022 5.11446 9.52947 5.47495 9.83851 5.93746C10.1476 6.39997 10.3125 6.94374 10.3125 7.5C10.3163 7.87039 10.2461 8.23781 10.1061 8.58073C9.96606 8.92366 9.75904 9.2352 9.49712 9.49712C9.2352 9.75904 8.92366 9.96606 8.58073 10.1061C8.23781 10.2461 7.87039 10.3163 7.5 10.3125ZM7.5 5.625C7.25219 5.61923 7.00579 5.66378 6.7757 5.75597C6.5456 5.84815 6.3366 5.98605 6.16132 6.16132C5.98605 6.3366 5.84815 6.5456 5.75597 6.7757C5.66378 7.00579 5.61923 7.25219 5.625 7.5C5.61923 7.74781 5.66378 7.99421 5.75597 8.22431C5.84815 8.4544 5.98605 8.66341 6.16132 8.83868C6.3366 9.01395 6.5456 9.15185 6.7757 9.24404C7.00579 9.33622 7.25219 9.38077 7.5 9.375C7.74781 9.38077 7.99421 9.33622 8.22431 9.24404C8.4544 9.15185 8.66341 9.01395 8.83868 8.83868C9.01395 8.66341 9.15185 8.4544 9.24404 8.22431C9.33622 7.99421 9.38077 7.74781 9.375 7.5C9.38077 7.25219 9.33622 7.00579 9.24404 6.7757C9.15185 6.5456 9.01395 6.3366 8.83868 6.16132C8.66341 5.98605 8.4544 5.84815 8.22431 5.75597C7.99421 5.66378 7.74781 5.61923 7.5 5.625Z" fill="black"/>
</svg>
