<svg width="230" height="50" viewBox="0 0 230 50" fill="none" xmlns="http://www.w3.org/2000/svg">
<path d="M9.36 35.32C10.632 35.32 12.072 35.08 13.68 34.6V32.44H8.46C8.1 32.44 7.8 32.56 7.56 32.8C7.32 33.04 7.2 33.34 7.2 33.7V34.06C7.2 34.42 7.32 34.72 7.56 34.96C7.8 35.2 8.1 35.32 8.46 35.32H9.36ZM2.7 21.28C7.092 20.8 11.052 20.56 14.58 20.56C16.212 20.56 17.52 21.052 18.504 22.036C19.488 23.02 19.98 24.328 19.98 25.96V40H14.4L14.04 38.2C12.912 38.944 11.748 39.496 10.548 39.856C9.372 40.192 8.376 40.36 7.56 40.36H6.3C4.668 40.36 3.36 39.868 2.376 38.884C1.392 37.9 0.9 36.592 0.9 34.96V33.34C0.9 31.708 1.392 30.4 2.376 29.416C3.36 28.432 4.668 27.94 6.3 27.94H13.68V26.5C13.68 26.14 13.56 25.84 13.32 25.6C13.08 25.36 12.78 25.24 12.42 25.24C10.86 25.24 9.132 25.312 7.236 25.456C5.364 25.6 3.852 25.708 2.7 25.78V21.28ZM42.2902 20.92V40H35.9902V25.78H29.5102V40H23.2102V20.92H42.2902Z" fill="black"/>
<path d="M48.96 40.36C47.928 40.36 46.728 40.24 45.36 40V35.32H46.8C47.712 35.32 48.192 34.84 48.24 33.88L48.96 20.92H66.24V40H59.94V25.78H54.9L54.36 34.96C54.264 36.592 53.724 37.9 52.74 38.884C51.756 39.868 50.496 40.36 48.96 40.36ZM82.2473 20.92H88.9073V40H82.6073V29.56L76.4873 40H69.8273V20.92H76.1273V31.36L82.2473 20.92ZM105.283 27.94V20.92H111.583V40H105.283V32.8H98.8031V40H92.5031V20.92H98.8031V27.94H105.283ZM124.179 32.8H121.479V40H115.179V20.92H121.479V27.94H124.359L126.339 23.98C127.059 22.444 128.187 21.4 129.723 20.848C130.275 20.656 130.803 20.56 131.307 20.56C132.123 20.56 132.867 20.62 133.539 20.74L134.439 20.92V25.78H133.179C132.363 25.78 131.763 26.14 131.379 26.86L129.579 30.46L134.979 40H128.139L124.179 32.8Z" fill="black"/>
<path d="M153.12 33C150.792 33.24 148.512 33.36 146.28 33.36C144.648 33.36 143.34 32.868 142.356 31.884C141.372 30.9 140.88 29.592 140.88 27.96V18.78H138.72V13.92H140.88L141.6 9.6H147.18V13.92H151.68V18.78H147.18V27.06C147.18 27.42 147.3 27.72 147.54 27.96C147.78 28.2 148.08 28.32 148.44 28.32H153.12V33ZM162.684 18.06C161.724 18.06 161.244 18.54 161.244 19.5V21.48H167.364V19.5C167.364 18.54 166.884 18.06 165.924 18.06H162.684ZM172.944 32.64C168.312 33.12 164.112 33.36 160.344 33.36C158.712 33.36 157.404 32.868 156.42 31.884C155.436 30.9 154.944 29.592 154.944 27.96V19.32C154.944 17.52 155.448 16.116 156.456 15.108C157.488 14.076 158.904 13.56 160.704 13.56H167.904C169.704 13.56 171.108 14.076 172.116 15.108C173.148 16.116 173.664 17.52 173.664 19.32V25.98H161.244V27.42C161.244 27.78 161.364 28.08 161.604 28.32C161.844 28.56 162.144 28.68 162.504 28.68C164.88 28.68 168.36 28.5 172.944 28.14V32.64ZM184.45 28.32C185.722 28.32 187.162 28.08 188.77 27.6V25.44H183.55C183.19 25.44 182.89 25.56 182.65 25.8C182.41 26.04 182.29 26.34 182.29 26.7V27.06C182.29 27.42 182.41 27.72 182.65 27.96C182.89 28.2 183.19 28.32 183.55 28.32H184.45ZM177.79 14.28C182.182 13.8 186.142 13.56 189.67 13.56C191.302 13.56 192.61 14.052 193.594 15.036C194.578 16.02 195.07 17.328 195.07 18.96V33H189.49L189.13 31.2C188.002 31.944 186.838 32.496 185.638 32.856C184.462 33.192 183.466 33.36 182.65 33.36H181.39C179.758 33.36 178.45 32.868 177.466 31.884C176.482 30.9 175.99 29.592 175.99 27.96V26.34C175.99 24.708 176.482 23.4 177.466 22.416C178.45 21.432 179.758 20.94 181.39 20.94H188.77V19.5C188.77 19.14 188.65 18.84 188.41 18.6C188.17 18.36 187.87 18.24 187.51 18.24C185.95 18.24 184.222 18.312 182.326 18.456C180.454 18.6 178.942 18.708 177.79 18.78V14.28ZM211.08 13.56C213.024 13.56 214.524 14.28 215.58 15.72C216.684 14.976 217.872 14.436 219.144 14.1C220.44 13.74 221.592 13.56 222.6 13.56H222.96C224.592 13.56 225.9 14.052 226.884 15.036C227.868 16.02 228.36 17.328 228.36 18.96V33H222.06V20.04C222.06 19.68 221.94 19.38 221.7 19.14C221.46 18.9 221.16 18.78 220.8 18.78H220.62C219.54 18.78 218.16 19.02 216.48 19.5V33H210.18V20.04C210.18 19.68 210.06 19.38 209.82 19.14C209.58 18.9 209.28 18.78 208.92 18.78H208.74C207.66 18.78 206.28 19.02 204.6 19.5V33H198.3V13.92H203.88L204.24 15.72C205.368 14.976 206.52 14.436 207.696 14.1C208.896 13.74 209.904 13.56 210.72 13.56H211.08Z" fill="black"/>
<path fill-rule="evenodd" clip-rule="evenodd" d="M223.953 48.2295L230 42.6147L223.953 37V40.9123H145V44.2658H223.953V48.2295Z" fill="url(#paint0_linear_21_1693)"/>
<defs>
<linearGradient id="paint0_linear_21_1693" x1="231.599" y1="42.7009" x2="143.401" y2="42.7009" gradientUnits="userSpaceOnUse">
<stop stop-color="#8F00FF"/>
<stop offset="1" stop-color="#8F00FF" stop-opacity="0"/>
</linearGradient>
</defs>
</svg>
